<?xml version="1.0" encoding="utf-8"?>
<!-- Generator: Adobe Illustrator 21.0.0, SVG Export Plug-In . SVG Version: 6.00 Build 0)  -->
<svg version="1.1" id="Layer_1" xmlns="http://www.w3.org/2000/svg" xmlns:xlink="http://www.w3.org/1999/xlink" x="0px" y="0px"
	 viewBox="0 0 4261 3039" style="enable-background:new 0 0 4261 3039;" xml:space="preserve">
<style type="text/css">
	.st0{fill:none;stroke:#878787;stroke-width:4;stroke-miterlimit:10;}
</style>
<g>
	<line class="st0" x1="114" y1="86.2" x2="126.2" y2="2896.1"/>
</g>
<g>
	<line class="st0" x1="267" y1="87.5" x2="276.2" y2="2891.1"/>
</g>
<g>
	<line class="st0" x1="422.3" y1="83.4" x2="431.5" y2="2896.1"/>
</g>
<g>
	<line class="st0" x1="577.2" y1="87.8" x2="586.4" y2="2900.5"/>
</g>
<g>
	<line class="st0" x1="732.1" y1="92.1" x2="741.3" y2="2904.9"/>
</g>
<g>
	<line class="st0" x1="887" y1="86.5" x2="896.2" y2="2899.2"/>
</g>
<g>
	<line class="st0" x1="1041.9" y1="89.9" x2="1051.1" y2="2902.6"/>
</g>
<g>
	<line class="st0" x1="1196.8" y1="90.3" x2="1206" y2="2903"/>
</g>
<g>
	<line class="st0" x1="1351.7" y1="88.7" x2="1360.9" y2="2901.4"/>
</g>
<g>
	<line class="st0" x1="1506.6" y1="88.9" x2="1515.8" y2="2901.6"/>
</g>
<g>
	<line class="st0" x1="1661.6" y1="91.2" x2="1670.8" y2="2903.9"/>
</g>
<g>
	<line class="st0" x1="1817.1" y1="90.2" x2="1825.8" y2="2902.1"/>
</g>
<g>
	<line class="st0" x1="113.8" y1="85.2" x2="1816" y2="89"/>
</g>
<g>
	<line class="st0" x1="113.8" y1="235.5" x2="1818" y2="241.1"/>
</g>
<g>
	<line class="st0" x1="113.8" y1="387.9" x2="1818" y2="393.4"/>
</g>
<g>
	<line class="st0" x1="116" y1="540" x2="1818" y2="545.7"/>
</g>
<g>
	<line class="st0" x1="120" y1="693" x2="1818" y2="698.1"/>
</g>
<g>
	<line class="st0" x1="119" y1="847" x2="1819" y2="852"/>
</g>
<g>
	<line class="st0" x1="120" y1="995" x2="1821" y2="1000"/>
</g>
<g>
	<line class="st0" x1="1966.1" y1="86.5" x2="1975.3" y2="2890.2"/>
</g>
<g>
	<line class="st0" x1="2121.3" y1="89.4" x2="2130.6" y2="2902.2"/>
</g>
<g>
	<line class="st0" x1="2276.2" y1="88.8" x2="2285.5" y2="2901.5"/>
</g>
<g>
	<line class="st0" x1="2431.1" y1="91.2" x2="2440.4" y2="2903.9"/>
</g>
<g>
	<line class="st0" x1="2586" y1="95.6" x2="2595.3" y2="2908.3"/>
</g>
<g>
	<line class="st0" x1="2740.9" y1="92.9" x2="2750.2" y2="2905.7"/>
</g>
<g>
	<line class="st0" x1="2895.8" y1="92.3" x2="2905.1" y2="2905"/>
</g>
<g>
	<line class="st0" x1="3050.7" y1="90.7" x2="3060" y2="2903.4"/>
</g>
<g>
	<line class="st0" x1="3205.6" y1="92.9" x2="3214.8" y2="2905.6"/>
</g>
<g>
	<line class="st0" x1="3360.6" y1="91.3" x2="3369.8" y2="2904"/>
</g>
<g>
	<line class="st0" x1="3516.1" y1="91.3" x2="3524.8" y2="2903.2"/>
</g>
<g>
	<line class="st0" x1="3670.8" y1="93.8" x2="3680" y2="2906.5"/>
</g>
<g>
	<line class="st0" x1="3825.6" y1="89" x2="3834.8" y2="2901.8"/>
</g>
<g>
	<line class="st0" x1="3980.7" y1="93.5" x2="3989.9" y2="2906.2"/>
</g>
<g>
	<line class="st0" x1="4136.2" y1="92.8" x2="4144.9" y2="2904.7"/>
</g>
<g>
	<line class="st0" x1="1812.8" y1="90.2" x2="4140.2" y2="94"/>
</g>
<g>
	<line class="st0" x1="1812.8" y1="240.5" x2="4135.6" y2="246.1"/>
</g>
<g>
	<line class="st0" x1="1812.8" y1="392.9" x2="4135.6" y2="398.4"/>
</g>
<g>
	<line class="st0" x1="1815.8" y1="545" x2="4135.6" y2="550.7"/>
</g>
<g>
	<line class="st0" x1="1821.3" y1="698" x2="4135.6" y2="703.1"/>
</g>
<g>
	<line class="st0" x1="1819.9" y1="852" x2="4137" y2="857"/>
</g>
<g>
	<line class="st0" x1="1815.3" y1="1000" x2="4141" y2="1005"/>
</g>
<g>
	<line class="st0" x1="120" y1="1158" x2="1821" y2="1163"/>
</g>
<g>
	<line class="st0" x1="1809.3" y1="1163" x2="4147" y2="1168"/>
</g>
<g>
	<line class="st0" x1="109" y1="1316" x2="1810" y2="1321"/>
</g>
<g>
	<line class="st0" x1="1798.3" y1="1321" x2="4136" y2="1326"/>
</g>
<g>
	<line class="st0" x1="120" y1="1474" x2="1809" y2="1479"/>
</g>
<g>
	<line class="st0" x1="1809.3" y1="1479" x2="4147" y2="1484"/>
</g>
<g>
	<line class="st0" x1="120" y1="1632" x2="1822" y2="1637"/>
</g>
<g>
	<line class="st0" x1="1808.3" y1="1637" x2="4146" y2="1642"/>
</g>
<g>
	<line class="st0" x1="121" y1="1790" x2="1797" y2="1795"/>
</g>
<g>
	<line class="st0" x1="1797.3" y1="1795" x2="4135" y2="1800"/>
</g>
<g>
	<line class="st0" x1="120" y1="1948" x2="1786" y2="1953"/>
</g>
<g>
	<line class="st0" x1="1786.3" y1="1953" x2="4141" y2="1958"/>
</g>
<g>
	<line class="st0" x1="123" y1="2106" x2="1755" y2="2111"/>
</g>
<g>
	<line class="st0" x1="1754.3" y1="2111" x2="4141" y2="2116"/>
</g>
<g>
	<line class="st0" x1="120" y1="2264" x2="1779" y2="2269"/>
</g>
<g>
	<line class="st0" x1="1764.3" y1="2269" x2="4143" y2="2274"/>
</g>
<g>
	<line class="st0" x1="120" y1="2422" x2="1753" y2="2427"/>
</g>
<g>
	<line class="st0" x1="1753.3" y1="2427" x2="4141" y2="2432"/>
</g>
<g>
	<line class="st0" x1="125" y1="2580" x2="1742" y2="2585"/>
</g>
<g>
	<line class="st0" x1="1742.3" y1="2585" x2="4141" y2="2590"/>
</g>
<g>
	<line class="st0" x1="126" y1="2739" x2="1735" y2="2748"/>
</g>
<g>
	<line class="st0" x1="1735.3" y1="2748" x2="4141" y2="2753"/>
</g>
<g>
	<line class="st0" x1="126" y1="2896" x2="1720" y2="2901"/>
</g>
<g>
	<line class="st0" x1="1720.3" y1="2901" x2="4145" y2="2905"/>
</g>
</svg>
