<?xml version="1.0" encoding="utf-8"?>
<!-- Generator: Adobe Illustrator 21.0.0, SVG Export Plug-In . SVG Version: 6.00 Build 0)  -->
<svg version="1.1" id="Layer_1" xmlns="http://www.w3.org/2000/svg" xmlns:xlink="http://www.w3.org/1999/xlink" x="0px" y="0px"
	 viewBox="0 0 1920 2268" style="enable-background:new 0 0 1920 2268;" xml:space="preserve">
<style type="text/css">
	.st0{fill:none;stroke:#878787;stroke-width:3;stroke-miterlimit:10;}
</style>
<g>
	<line class="st0" x1="316" y1="1425" x2="1669" y2="1421"/>
</g>
<g>
	<line class="st0" x1="320" y1="1503" x2="1671" y2="1499"/>
</g>
<g>
	<line class="st0" x1="320" y1="1584" x2="1671" y2="1580"/>
</g>
<g>
	<line class="st0" x1="320" y1="1665" x2="1671" y2="1661"/>
</g>
<g>
	<line class="st0" x1="320" y1="1746" x2="1671" y2="1742"/>
</g>
<g>
	<line class="st0" x1="320" y1="1827" x2="1671" y2="1823"/>
</g>
<g>
	<line class="st0" x1="320" y1="1908" x2="1671" y2="1904"/>
</g>
<g>
	<line class="st0" x1="320" y1="1989" x2="1671" y2="1985"/>
</g>
<g>
	<line class="st0" x1="312.6" y1="2070.4" x2="1671" y2="2066"/>
</g>
<g>
	<line class="st0" x1="316.5" y1="1347.3" x2="1669" y2="1343"/>
</g>
<g>
	<line class="st0" x1="317.4" y1="1269.1" x2="1673" y2="1265"/>
</g>
<g>
	<line class="st0" x1="318.3" y1="1191" x2="1670" y2="1187"/>
</g>
<g>
	<line class="st0" x1="319.2" y1="1112.8" x2="1671" y2="1108"/>
</g>
<g>
	<line class="st0" x1="320.1" y1="1034.6" x2="1673" y2="1030"/>
</g>
<g>
	<line class="st0" x1="321" y1="956.5" x2="1673" y2="952"/>
</g>
<g>
	<line class="st0" x1="322" y1="878.3" x2="1672" y2="874"/>
</g>
<g>
	<line class="st0" x1="318.9" y1="800.2" x2="1676.4" y2="795.7"/>
</g>
<g>
	<line class="st0" x1="323.8" y1="722" x2="1677.3" y2="717.3"/>
</g>
<g>
	<line class="st0" x1="324.7" y1="643.9" x2="1677.4" y2="639.6"/>
</g>
<g>
	<line class="st0" x1="320" y1="566" x2="1677.5" y2="561.2"/>
</g>
<g>
	<line class="st0" x1="320" y1="488" x2="1677.6" y2="482.8"/>
</g>
<g>
	<line class="st0" x1="320" y1="409" x2="1673" y2="405"/>
</g>
<g>
	<line class="st0" x1="320" y1="331" x2="1676" y2="327"/>
</g>
<g>
	<line class="st0" x1="320" y1="253" x2="1676" y2="249"/>
</g>
<g>
	<line class="st0" x1="320" y1="175" x2="1677" y2="171"/>
</g>
<g>
	<line class="st0" x1="323" y1="97" x2="1677" y2="92"/>
</g>
<g>
	<line class="st0" x1="317.3" y1="2069" x2="322.9" y2="97"/>
</g>
<g>
	<line class="st0" x1="394.2" y1="2069" x2="399.8" y2="97"/>
</g>
<g>
	<line class="st0" x1="471" y1="2069" x2="476.6" y2="97"/>
</g>
<g>
	<line class="st0" x1="547.9" y1="2069" x2="553.5" y2="97"/>
</g>
<g>
	<line class="st0" x1="624.7" y1="2069" x2="630.3" y2="97"/>
</g>
<g>
	<line class="st0" x1="701.6" y1="2069" x2="707.2" y2="97"/>
</g>
<g>
	<line class="st0" x1="778.4" y1="2069" x2="784.1" y2="97"/>
</g>
<g>
	<line class="st0" x1="855.3" y1="2069" x2="860.9" y2="97"/>
</g>
<g>
	<line class="st0" x1="932.2" y1="2069" x2="937.8" y2="97"/>
</g>
<g>
	<line class="st0" x1="1009" y1="2069" x2="1014.6" y2="97"/>
</g>
<g>
	<line class="st0" x1="1088.5" y1="2069" x2="1094.1" y2="97"/>
</g>
<g>
	<line class="st0" x1="1167.6" y1="2065.8" x2="1173.2" y2="93.8"/>
</g>
<g>
	<line class="st0" x1="1326" y1="2067" x2="1334.2" y2="96.8"/>
</g>
<g>
	<line class="st0" x1="1414" y1="2065" x2="1419" y2="93"/>
</g>
<g>
	<line class="st0" x1="1499" y1="2065" x2="1504" y2="93"/>
</g>
<g>
	<line class="st0" x1="1583.6" y1="2064.5" x2="1589" y2="92"/>
</g>
<g>
	<line class="st0" x1="1668.6" y1="2066" x2="1677" y2="92"/>
</g>
<g>
	<line class="st0" x1="1248.2" y1="2065.8" x2="1253.8" y2="93.8"/>
</g>
</svg>
