<?xml version="1.0" encoding="utf-8"?>
<!-- Generator: Adobe Illustrator 21.0.0, SVG Export Plug-In . SVG Version: 6.00 Build 0)  -->
<svg version="1.1" id="Layer_1" xmlns="http://www.w3.org/2000/svg" xmlns:xlink="http://www.w3.org/1999/xlink" x="0px" y="0px"
	 viewBox="0 0 1920 1431" style="enable-background:new 0 0 1920 1431;" xml:space="preserve">
<style type="text/css">
	.st0{fill:none;stroke:#878787;stroke-width:4;stroke-miterlimit:10;}
</style>
<g>
	<line class="st0" x1="44.6" y1="88.5" x2="48.8" y2="1374"/>
</g>
<g>
	<line class="st0" x1="152.3" y1="89.3" x2="156.5" y2="1374.7"/>
</g>
<g>
	<line class="st0" x1="259.9" y1="90" x2="264.1" y2="1375.5"/>
</g>
<g>
	<line class="st0" x1="367.6" y1="90.8" x2="371.8" y2="1376.2"/>
</g>
<g>
	<line class="st0" x1="475.2" y1="91.6" x2="479.4" y2="1377"/>
</g>
<g>
	<line class="st0" x1="582.8" y1="92.3" x2="587.1" y2="1377.8"/>
</g>
<g>
	<line class="st0" x1="690.5" y1="93.1" x2="694.7" y2="1378.5"/>
</g>
<g>
	<line class="st0" x1="798.1" y1="93.8" x2="802.3" y2="1379.3"/>
</g>
<g>
	<line class="st0" x1="905.8" y1="94.6" x2="910" y2="1380.1"/>
</g>
<g>
	<line class="st0" x1="1013.4" y1="95.4" x2="1018" y2="1377"/>
</g>
<g>
	<line class="st0" x1="1121" y1="96.1" x2="1125" y2="1377"/>
</g>
<g>
	<line class="st0" x1="1228.7" y1="96.9" x2="1233" y2="1377"/>
</g>
<g>
	<line class="st0" x1="1336.3" y1="97.7" x2="1341" y2="1377"/>
</g>
<g>
	<line class="st0" x1="1444" y1="98.4" x2="1448" y2="1377"/>
</g>
<g>
	<line class="st0" x1="1551.6" y1="99.2" x2="1556" y2="1379"/>
</g>
<g>
	<line class="st0" x1="1659.2" y1="100" x2="1663" y2="1380"/>
</g>
<g>
	<line class="st0" x1="1766.9" y1="100.7" x2="1771" y2="1380"/>
</g>
<g>
	<line class="st0" x1="1874.5" y1="98.2" x2="1879" y2="1381"/>
</g>
<g>
	<line class="st0" x1="46.4" y1="90.9" x2="1875.7" y2="98.6"/>
</g>
<g>
	<line class="st0" x1="46.4" y1="196.7" x2="1875.7" y2="204.5"/>
</g>
<g>
	<line class="st0" x1="46.4" y1="302.6" x2="1875.7" y2="310.3"/>
</g>
<g>
	<line class="st0" x1="46.4" y1="408.4" x2="1875.7" y2="416.2"/>
</g>
<g>
	<line class="st0" x1="46.4" y1="514.3" x2="1875.7" y2="522"/>
</g>
<g>
	<line class="st0" x1="46.4" y1="620.2" x2="1875.7" y2="627.9"/>
</g>
<g>
	<line class="st0" x1="46.4" y1="726" x2="1875.7" y2="733.7"/>
</g>
<g>
	<line class="st0" x1="46.4" y1="831.9" x2="1875.7" y2="839.6"/>
</g>
<g>
	<line class="st0" x1="46.4" y1="937.7" x2="1875.7" y2="945.5"/>
</g>
<g>
	<line class="st0" x1="46.4" y1="1043.6" x2="1875.7" y2="1051.3"/>
</g>
<g>
	<line class="st0" x1="46.4" y1="1153" x2="1875.7" y2="1160.7"/>
</g>
<g>
	<line class="st0" x1="49.4" y1="1262" x2="1878.7" y2="1269.7"/>
</g>
<g>
	<line class="st0" x1="49.4" y1="1373" x2="1878.7" y2="1380.7"/>
</g>
</svg>
