<?xml version="1.0" encoding="utf-8"?>
<!-- Generator: Adobe Illustrator 21.0.0, SVG Export Plug-In . SVG Version: 6.00 Build 0)  -->
<svg version="1.1" id="Layer_1" xmlns="http://www.w3.org/2000/svg" xmlns:xlink="http://www.w3.org/1999/xlink" x="0px" y="0px"
	 viewBox="0 0 3639 5360" style="enable-background:new 0 0 3639 5360;" xml:space="preserve">
<style type="text/css">
	.st0{fill:none;stroke:#878787;stroke-width:4;stroke-miterlimit:10;}
</style>
<g>
	<line class="st0" x1="97.5" y1="149.5" x2="100.4" y2="1043.1"/>
</g>
<g>
	<line class="st0" x1="188" y1="150" x2="190.9" y2="1043.5"/>
</g>
<g>
	<line class="st0" x1="278.5" y1="150.5" x2="281.4" y2="1044"/>
</g>
<g>
	<line class="st0" x1="369" y1="150.9" x2="371.9" y2="1044.5"/>
</g>
<g>
	<line class="st0" x1="459.5" y1="151.4" x2="462.4" y2="1045"/>
</g>
<g>
	<line class="st0" x1="550" y1="151.9" x2="552.9" y2="1045.5"/>
</g>
<g>
	<line class="st0" x1="640.5" y1="152.4" x2="643.4" y2="1045.9"/>
</g>
<g>
	<line class="st0" x1="731" y1="152.9" x2="733.9" y2="1046.4"/>
</g>
<g>
	<line class="st0" x1="821.5" y1="153.3" x2="824.4" y2="1046.9"/>
</g>
<g>
	<line class="st0" x1="912" y1="153.8" x2="914.9" y2="1047.4"/>
</g>
<g>
	<line class="st0" x1="1002.5" y1="154.3" x2="1005.4" y2="1047.9"/>
</g>
<g>
	<line class="st0" x1="1093" y1="154.8" x2="1095.9" y2="1048.3"/>
</g>
<g>
	<line class="st0" x1="1183.5" y1="155.3" x2="1186.4" y2="1048.8"/>
</g>
<g>
	<line class="st0" x1="1274" y1="155.7" x2="1276.9" y2="1049.3"/>
</g>
<g>
	<line class="st0" x1="1364.5" y1="156.2" x2="1367.4" y2="1049.8"/>
</g>
<g>
	<line class="st0" x1="1455" y1="156.7" x2="1457.9" y2="1050.3"/>
</g>
<g>
	<line class="st0" x1="1545.5" y1="157.2" x2="1548.4" y2="1050.7"/>
</g>
<g>
	<line class="st0" x1="1636" y1="157.7" x2="1638.9" y2="1051.2"/>
</g>
<g>
	<line class="st0" x1="1726.5" y1="158.1" x2="1729.4" y2="1051.7"/>
</g>
<g>
	<line class="st0" x1="1817" y1="158.6" x2="1819.9" y2="1052.2"/>
</g>
<g>
	<line class="st0" x1="99" y1="151.5" x2="1817" y2="158"/>
</g>
<g>
	<line class="st0" x1="99" y1="240.5" x2="1817" y2="247"/>
</g>
<g>
	<line class="st0" x1="99" y1="329.5" x2="1817" y2="336"/>
</g>
<g>
	<line class="st0" x1="99" y1="418.5" x2="1817" y2="425"/>
</g>
<g>
	<line class="st0" x1="99" y1="507.5" x2="1817" y2="514"/>
</g>
<g>
	<line class="st0" x1="99" y1="596.5" x2="1817" y2="603"/>
</g>
<g>
	<line class="st0" x1="99" y1="685.5" x2="1817" y2="692"/>
</g>
<g>
	<line class="st0" x1="99" y1="774.5" x2="1817" y2="781"/>
</g>
<g>
	<line class="st0" x1="99" y1="863.5" x2="1817" y2="870"/>
</g>
<g>
	<line class="st0" x1="99" y1="952.5" x2="1817" y2="959"/>
</g>
<g>
	<line class="st0" x1="99" y1="1044.5" x2="1820" y2="1050"/>
</g>
<g>
	<line class="st0" x1="100" y1="1029" x2="111" y2="5260"/>
</g>
<g>
	<line class="st0" x1="191" y1="1035" x2="205.1" y2="5261"/>
</g>
<g>
	<line class="st0" x1="281" y1="1017" x2="295.1" y2="5264"/>
</g>
<g>
	<line class="st0" x1="372" y1="993" x2="386.1" y2="5262"/>
</g>
<g>
	<line class="st0" x1="462" y1="1021" x2="476" y2="5264"/>
</g>
<g>
	<line class="st0" x1="553" y1="1027" x2="567" y2="5262"/>
</g>
<g>
	<line class="st0" x1="643" y1="1046" x2="657" y2="5264"/>
</g>
<g>
	<line class="st0" x1="734" y1="1044.5" x2="748" y2="5263"/>
</g>
<g>
	<line class="st0" x1="824" y1="1035" x2="838" y2="5264"/>
</g>
<g>
	<line class="st0" x1="915" y1="1034.9" x2="929" y2="5264"/>
</g>
<g>
	<line class="st0" x1="1005" y1="1043" x2="1019.3" y2="5257.7"/>
</g>
<g>
	<line class="st0" x1="1096" y1="1041.6" x2="1109.8" y2="5257"/>
</g>
<g>
	<line class="st0" x1="1186" y1="1046" x2="1200.3" y2="5260.3"/>
</g>
<g>
	<line class="st0" x1="1277" y1="1028" x2="1290.8" y2="5259.6"/>
</g>
<g>
	<line class="st0" x1="1367" y1="1040.5" x2="1381.3" y2="5262.9"/>
</g>
<g>
	<line class="st0" x1="1458" y1="1040" x2="1472" y2="5258.9"/>
</g>
<g>
	<line class="st0" x1="1548" y1="1053.3" x2="1562" y2="5258.2"/>
</g>
<g>
	<line class="st0" x1="1638.9" y1="1030" x2="1653" y2="5261.5"/>
</g>
<g>
	<line class="st0" x1="1729" y1="1026" x2="1743" y2="5260"/>
</g>
<g>
	<line class="st0" x1="1820" y1="1031" x2="1839" y2="5261"/>
</g>
<g>
	<line class="st0" x1="102" y1="1134.5" x2="1820" y2="1141"/>
</g>
<g>
	<line class="st0" x1="102" y1="1223.5" x2="1820" y2="1230"/>
</g>
<g>
	<line class="st0" x1="102" y1="1312.5" x2="1820" y2="1319"/>
</g>
<g>
	<line class="st0" x1="102" y1="1401.5" x2="1820" y2="1408"/>
</g>
<g>
	<line class="st0" x1="102" y1="1490.5" x2="1820" y2="1497"/>
</g>
<g>
	<line class="st0" x1="102" y1="1579.5" x2="1820" y2="1586"/>
</g>
<g>
	<line class="st0" x1="102" y1="1668.5" x2="1820" y2="1675"/>
</g>
<g>
	<line class="st0" x1="102" y1="1757.5" x2="1820" y2="1764"/>
</g>
<g>
	<line class="st0" x1="102" y1="1846.5" x2="1823" y2="1853"/>
</g>
<g>
	<line class="st0" x1="108" y1="2029.5" x2="1826" y2="2036"/>
</g>
<g>
	<line class="st0" x1="108" y1="2118.5" x2="1826" y2="2125"/>
</g>
<g>
	<line class="st0" x1="108" y1="2207.5" x2="1826" y2="2214"/>
</g>
<g>
	<line class="st0" x1="108" y1="2299.5" x2="1829" y2="2305"/>
</g>
<g>
	<line class="st0" x1="111" y1="2389.5" x2="1829" y2="2396"/>
</g>
<g>
	<line class="st0" x1="110" y1="2478.5" x2="1828" y2="2485"/>
</g>
<g>
	<line class="st0" x1="111" y1="2567.5" x2="1829" y2="2574"/>
</g>
<g>
	<line class="st0" x1="111" y1="2656.5" x2="1829" y2="2663"/>
</g>
<g>
	<line class="st0" x1="111" y1="2745.5" x2="1829" y2="2752"/>
</g>
<g>
	<line class="st0" x1="111" y1="2834.5" x2="1829" y2="2841"/>
</g>
<g>
	<line class="st0" x1="111" y1="2923.5" x2="1829" y2="2930"/>
</g>
<g>
	<line class="st0" x1="111" y1="3012.5" x2="1829" y2="3019"/>
</g>
<g>
	<line class="st0" x1="111" y1="3101.5" x2="1832" y2="3108"/>
</g>
<g>
	<line class="st0" x1="111" y1="3190.5" x2="1832" y2="3197"/>
</g>
<g>
	<line class="st0" x1="111" y1="3280.5" x2="1832" y2="3287"/>
</g>
<g>
	<line class="st0" x1="111" y1="3370.5" x2="1832" y2="3377"/>
</g>
<g>
	<line class="st0" x1="111" y1="3460.5" x2="1832" y2="3467"/>
</g>
<g>
	<line class="st0" x1="111" y1="3550.5" x2="1832" y2="3557"/>
</g>
<g>
	<line class="st0" x1="111" y1="3640.5" x2="1832" y2="3647"/>
</g>
<g>
	<line class="st0" x1="111" y1="3730.5" x2="1832" y2="3737"/>
</g>
<g>
	<line class="st0" x1="111" y1="3820.5" x2="1832" y2="3827"/>
</g>
<g>
	<line class="st0" x1="111" y1="3910.5" x2="1832" y2="3917"/>
</g>
<g>
	<line class="st0" x1="111" y1="4000.5" x2="1832" y2="4007"/>
</g>
<g>
	<line class="st0" x1="111" y1="4090.5" x2="1832" y2="4097"/>
</g>
<g>
	<line class="st0" x1="111" y1="4180.5" x2="1832" y2="4187"/>
</g>
<g>
	<line class="st0" x1="111" y1="4270.5" x2="1832" y2="4277"/>
</g>
<g>
	<line class="st0" x1="111" y1="4360.5" x2="1832" y2="4367"/>
</g>
<g>
	<line class="st0" x1="111" y1="4450.5" x2="1832" y2="4457"/>
</g>
<g>
	<line class="st0" x1="111" y1="4540.5" x2="1832" y2="4547"/>
</g>
<g>
	<line class="st0" x1="111" y1="4630.5" x2="1832" y2="4637"/>
</g>
<g>
	<line class="st0" x1="111" y1="4720.5" x2="1832" y2="4727"/>
</g>
<g>
	<line class="st0" x1="111" y1="4810.5" x2="1832" y2="4817"/>
</g>
<g>
	<line class="st0" x1="111" y1="4900.5" x2="1832" y2="4907"/>
</g>
<g>
	<line class="st0" x1="111" y1="4990.5" x2="1832" y2="4997"/>
</g>
<g>
	<line class="st0" x1="111" y1="5080.5" x2="1832" y2="5087"/>
</g>
<g>
	<line class="st0" x1="111" y1="5170.5" x2="1832" y2="5177"/>
</g>
<g>
	<line class="st0" x1="111" y1="5260.5" x2="1839" y2="5261"/>
</g>
<g>
	<line class="st0" x1="102" y1="1938.5" x2="1823" y2="1944"/>
</g>
<g>
	<line class="st0" x1="1905" y1="157" x2="1907.9" y2="1050.5"/>
</g>
<g>
	<line class="st0" x1="1995.5" y1="157.5" x2="1998.4" y2="1051"/>
</g>
<g>
	<line class="st0" x1="2086" y1="157.9" x2="2088.9" y2="1051.5"/>
</g>
<g>
	<line class="st0" x1="2176.5" y1="158.4" x2="2179.4" y2="1052"/>
</g>
<g>
	<line class="st0" x1="2267" y1="158.9" x2="2269.9" y2="1052.5"/>
</g>
<g>
	<line class="st0" x1="2357.5" y1="159.4" x2="2360.4" y2="1052.9"/>
</g>
<g>
	<line class="st0" x1="2448" y1="159.9" x2="2450.9" y2="1053.4"/>
</g>
<g>
	<line class="st0" x1="2538.5" y1="160.3" x2="2541.4" y2="1053.9"/>
</g>
<g>
	<line class="st0" x1="2629" y1="160.8" x2="2631.9" y2="1054.4"/>
</g>
<g>
	<line class="st0" x1="2719.5" y1="161.3" x2="2722.4" y2="1054.9"/>
</g>
<g>
	<line class="st0" x1="2810" y1="161.8" x2="2812.9" y2="1055.3"/>
</g>
<g>
	<line class="st0" x1="2900.5" y1="162.3" x2="2903.4" y2="1055.8"/>
</g>
<g>
	<line class="st0" x1="2991" y1="162.7" x2="2993.9" y2="1056.3"/>
</g>
<g>
	<line class="st0" x1="3081.5" y1="163.2" x2="3084.4" y2="1056.8"/>
</g>
<g>
	<line class="st0" x1="3172" y1="163.7" x2="3174.9" y2="1057.3"/>
</g>
<g>
	<line class="st0" x1="3262.5" y1="164.2" x2="3265.4" y2="1057.7"/>
</g>
<g>
	<line class="st0" x1="3353" y1="164.7" x2="3355.9" y2="1058.2"/>
</g>
<g>
	<line class="st0" x1="3443.5" y1="165.1" x2="3446.4" y2="1058.7"/>
</g>
<g>
	<line class="st0" x1="3534" y1="165.6" x2="3536.9" y2="1059.2"/>
</g>
<g>
	<line class="st0" x1="1816" y1="158.5" x2="3534" y2="165"/>
</g>
<g>
	<line class="st0" x1="1816" y1="247.5" x2="3534" y2="254"/>
</g>
<g>
	<line class="st0" x1="1816" y1="336.5" x2="3534" y2="343"/>
</g>
<g>
	<line class="st0" x1="1816" y1="425.5" x2="3534" y2="432"/>
</g>
<g>
	<line class="st0" x1="1816" y1="514.5" x2="3534" y2="521"/>
</g>
<g>
	<line class="st0" x1="1816" y1="603.5" x2="3534" y2="610"/>
</g>
<g>
	<line class="st0" x1="1816" y1="692.5" x2="3534" y2="699"/>
</g>
<g>
	<line class="st0" x1="1816" y1="781.5" x2="3534" y2="788"/>
</g>
<g>
	<line class="st0" x1="1816" y1="870.5" x2="3534" y2="877"/>
</g>
<g>
	<line class="st0" x1="1816" y1="959.5" x2="3534" y2="966"/>
</g>
<g>
	<line class="st0" x1="1816" y1="1051.5" x2="3537" y2="1057"/>
</g>
<g>
	<line class="st0" x1="1908" y1="1042" x2="1922.1" y2="5268"/>
</g>
<g>
	<line class="st0" x1="1998" y1="1024" x2="2012.1" y2="5271"/>
</g>
<g>
	<line class="st0" x1="2089" y1="1000" x2="2103.1" y2="5269"/>
</g>
<g>
	<line class="st0" x1="2179" y1="1028" x2="2193" y2="5271"/>
</g>
<g>
	<line class="st0" x1="2270" y1="1034" x2="2284" y2="5269"/>
</g>
<g>
	<line class="st0" x1="2360" y1="1053" x2="2374" y2="5271"/>
</g>
<g>
	<line class="st0" x1="2451" y1="1051.5" x2="2465" y2="5270"/>
</g>
<g>
	<line class="st0" x1="2541" y1="1042" x2="2555" y2="5271"/>
</g>
<g>
	<line class="st0" x1="2632" y1="1041.9" x2="2646" y2="5271"/>
</g>
<g>
	<line class="st0" x1="2722" y1="1050" x2="2736.3" y2="5264.7"/>
</g>
<g>
	<line class="st0" x1="2813" y1="1048.6" x2="2826.8" y2="5264"/>
</g>
<g>
	<line class="st0" x1="2903" y1="1053" x2="2917.3" y2="5267.3"/>
</g>
<g>
	<line class="st0" x1="2994" y1="1035" x2="3007.8" y2="5266.6"/>
</g>
<g>
	<line class="st0" x1="3084" y1="1047.5" x2="3098" y2="5266"/>
</g>
<g>
	<line class="st0" x1="3175" y1="1047" x2="3189" y2="5265.9"/>
</g>
<g>
	<line class="st0" x1="3265" y1="1060.3" x2="3279" y2="5265.2"/>
</g>
<g>
	<line class="st0" x1="3355.9" y1="1037" x2="3370" y2="5268.5"/>
</g>
<g>
	<line class="st0" x1="3446" y1="1033" x2="3460" y2="5267"/>
</g>
<g>
	<line class="st0" x1="3537" y1="1038" x2="3556" y2="5268"/>
</g>
<g>
	<line class="st0" x1="1819" y1="1141.5" x2="3537" y2="1148"/>
</g>
<g>
	<line class="st0" x1="1819" y1="1230.5" x2="3537" y2="1237"/>
</g>
<g>
	<line class="st0" x1="1819" y1="1319.5" x2="3537" y2="1326"/>
</g>
<g>
	<line class="st0" x1="1819" y1="1408.5" x2="3537" y2="1415"/>
</g>
<g>
	<line class="st0" x1="1819" y1="1497.5" x2="3537" y2="1504"/>
</g>
<g>
	<line class="st0" x1="1819" y1="1586.5" x2="3537" y2="1593"/>
</g>
<g>
	<line class="st0" x1="1819" y1="1675.5" x2="3537" y2="1682"/>
</g>
<g>
	<line class="st0" x1="1819" y1="1764.5" x2="3537" y2="1771"/>
</g>
<g>
	<line class="st0" x1="1819" y1="1853.5" x2="3540" y2="1860"/>
</g>
<g>
	<line class="st0" x1="1825" y1="2036.5" x2="3543" y2="2043"/>
</g>
<g>
	<line class="st0" x1="1825" y1="2125.5" x2="3543" y2="2132"/>
</g>
<g>
	<line class="st0" x1="1825" y1="2214.5" x2="3543" y2="2221"/>
</g>
<g>
	<line class="st0" x1="1825" y1="2306.5" x2="3546" y2="2312"/>
</g>
<g>
	<line class="st0" x1="1828" y1="2396.5" x2="3546" y2="2403"/>
</g>
<g>
	<line class="st0" x1="1827" y1="2485.5" x2="3545" y2="2492"/>
</g>
<g>
	<line class="st0" x1="1828" y1="2574.5" x2="3546" y2="2581"/>
</g>
<g>
	<line class="st0" x1="1828" y1="2663.5" x2="3546" y2="2670"/>
</g>
<g>
	<line class="st0" x1="1828" y1="2752.5" x2="3546" y2="2759"/>
</g>
<g>
	<line class="st0" x1="1828" y1="2841.5" x2="3546" y2="2848"/>
</g>
<g>
	<line class="st0" x1="1828" y1="2930.5" x2="3546" y2="2937"/>
</g>
<g>
	<line class="st0" x1="1828" y1="3019.5" x2="3546" y2="3026"/>
</g>
<g>
	<line class="st0" x1="1828" y1="3108.5" x2="3549" y2="3115"/>
</g>
<g>
	<line class="st0" x1="1828" y1="3197.5" x2="3549" y2="3204"/>
</g>
<g>
	<line class="st0" x1="1828" y1="3287.5" x2="3549" y2="3294"/>
</g>
<g>
	<line class="st0" x1="1828" y1="3377.5" x2="3549" y2="3384"/>
</g>
<g>
	<line class="st0" x1="1828" y1="3467.5" x2="3549" y2="3474"/>
</g>
<g>
	<line class="st0" x1="1828" y1="3557.5" x2="3549" y2="3564"/>
</g>
<g>
	<line class="st0" x1="1828" y1="3647.5" x2="3549" y2="3654"/>
</g>
<g>
	<line class="st0" x1="1828" y1="3737.5" x2="3549" y2="3744"/>
</g>
<g>
	<line class="st0" x1="1828" y1="3827.5" x2="3549" y2="3834"/>
</g>
<g>
	<line class="st0" x1="1828" y1="3917.5" x2="3549" y2="3924"/>
</g>
<g>
	<line class="st0" x1="1828" y1="4007.5" x2="3549" y2="4014"/>
</g>
<g>
	<line class="st0" x1="1828" y1="4097.5" x2="3549" y2="4104"/>
</g>
<g>
	<line class="st0" x1="1828" y1="4187.5" x2="3549" y2="4194"/>
</g>
<g>
	<line class="st0" x1="1828" y1="4277.5" x2="3549" y2="4284"/>
</g>
<g>
	<line class="st0" x1="1828" y1="4367.5" x2="3549" y2="4374"/>
</g>
<g>
	<line class="st0" x1="1828" y1="4457.5" x2="3552" y2="4464"/>
</g>
<g>
	<line class="st0" x1="1828" y1="4547.5" x2="3553" y2="4554"/>
</g>
<g>
	<line class="st0" x1="1828" y1="4637.5" x2="3553" y2="4644"/>
</g>
<g>
	<line class="st0" x1="1828" y1="4727.5" x2="3554" y2="4734"/>
</g>
<g>
	<line class="st0" x1="1828" y1="4817.5" x2="3554" y2="4824"/>
</g>
<g>
	<line class="st0" x1="1828" y1="4907.5" x2="3554" y2="4914"/>
</g>
<g>
	<line class="st0" x1="1828" y1="4997.5" x2="3555" y2="5004"/>
</g>
<g>
	<line class="st0" x1="1828" y1="5087.5" x2="3555" y2="5094"/>
</g>
<g>
	<line class="st0" x1="1828" y1="5177.5" x2="3556" y2="5184"/>
</g>
<g>
	<line class="st0" x1="1824" y1="5261.5" x2="3556" y2="5268"/>
</g>
<g>
	<line class="st0" x1="1819" y1="1945.5" x2="3540" y2="1951"/>
</g>
</svg>
