<?xml version="1.0" encoding="utf-8"?>
<!-- Generator: Adobe Illustrator 21.0.0, SVG Export Plug-In . SVG Version: 6.00 Build 0)  -->
<svg version="1.1" id="Layer_1" xmlns="http://www.w3.org/2000/svg" xmlns:xlink="http://www.w3.org/1999/xlink" x="0px" y="0px"
	 viewBox="0 0 1920 1080" style="enable-background:new 0 0 1920 1080;" xml:space="preserve">
<style type="text/css">
	.st0{fill:none;stroke:#878787;stroke-width:4;stroke-miterlimit:10;}
</style>
<g>
	<line class="st0" x1="154.5" y1="91.5" x2="157.4" y2="985.1"/>
</g>
<g>
	<line class="st0" x1="335.5" y1="92.5" x2="338.4" y2="986"/>
</g>
<g>
	<line class="st0" x1="516.5" y1="93.4" x2="519.4" y2="987"/>
</g>
<g>
	<line class="st0" x1="697.5" y1="94.4" x2="700.4" y2="987.9"/>
</g>
<g>
	<line class="st0" x1="878.5" y1="95.3" x2="881.4" y2="988.9"/>
</g>
<g>
	<line class="st0" x1="1059.5" y1="96.3" x2="1062.4" y2="989.9"/>
</g>
<g>
	<line class="st0" x1="1240.5" y1="97.3" x2="1243.4" y2="990.8"/>
</g>
<g>
	<line class="st0" x1="1421.5" y1="98.2" x2="1424.4" y2="991.8"/>
</g>
<g>
	<line class="st0" x1="1602.5" y1="99.2" x2="1605.4" y2="992.7"/>
</g>
<g>
	<line class="st0" x1="1783.5" y1="100.1" x2="1786.4" y2="993.7"/>
</g>
<g>
	<line class="st0" x1="156" y1="93.5" x2="1785" y2="100"/>
</g>
<g>
	<line class="st0" x1="156" y1="271.5" x2="1785" y2="278"/>
</g>
<g>
	<line class="st0" x1="156" y1="449.5" x2="1785" y2="456"/>
</g>
<g>
	<line class="st0" x1="156" y1="627.5" x2="1785" y2="634"/>
</g>
<g>
	<line class="st0" x1="156" y1="805.5" x2="1785" y2="812"/>
</g>
<g>
	<line class="st0" x1="156" y1="986.5" x2="1785" y2="993"/>
</g>
</svg>
