<?xml version="1.0" encoding="utf-8"?>
<!-- Generator: Adobe Illustrator 21.0.0, SVG Export Plug-In . SVG Version: 6.00 Build 0)  -->
<svg version="1.1" id="Layer_1" xmlns="http://www.w3.org/2000/svg" xmlns:xlink="http://www.w3.org/1999/xlink" x="0px" y="0px"
	 viewBox="0 0 1920 1080" style="enable-background:new 0 0 1920 1080;" xml:space="preserve">
<style type="text/css">
	.st0{fill:none;stroke:#878787;stroke-width:4;stroke-miterlimit:10;}
</style>
<g>
	<line class="st0" x1="114" y1="85" x2="120" y2="995"/>
</g>
<g>
	<line class="st0" x1="267" y1="87" x2="270" y2="995"/>
</g>
<g>
	<line class="st0" x1="422.3" y1="83.4" x2="425.3" y2="994.3"/>
</g>
<g>
	<line class="st0" x1="577.2" y1="84.5" x2="580.1" y2="995.4"/>
</g>
<g>
	<line class="st0" x1="732.1" y1="85.5" x2="735" y2="996.5"/>
</g>
<g>
	<line class="st0" x1="886.9" y1="86.6" x2="889.9" y2="997.6"/>
</g>
<g>
	<line class="st0" x1="1041.8" y1="87.7" x2="1044.8" y2="998.6"/>
</g>
<g>
	<line class="st0" x1="1196.7" y1="88.8" x2="1199.7" y2="999.7"/>
</g>
<g>
	<line class="st0" x1="1351.6" y1="89.8" x2="1354.6" y2="1000.8"/>
</g>
<g>
	<line class="st0" x1="1506.5" y1="88.9" x2="1509.5" y2="999.9"/>
</g>
<g>
	<line class="st0" x1="1661.5" y1="89" x2="1664.5" y2="999.9"/>
</g>
<g>
	<line class="st0" x1="1817" y1="89" x2="1819.5" y2="999.7"/>
</g>
<g>
	<line class="st0" x1="113.8" y1="85.2" x2="1816" y2="89"/>
</g>
<g>
	<line class="st0" x1="113.8" y1="235.5" x2="1818" y2="241.1"/>
</g>
<g>
	<line class="st0" x1="113.8" y1="387.9" x2="1818" y2="393.4"/>
</g>
<g>
	<line class="st0" x1="116" y1="540" x2="1818" y2="545.7"/>
</g>
<g>
	<line class="st0" x1="120" y1="693" x2="1818" y2="698.1"/>
</g>
<g>
	<line class="st0" x1="119" y1="847" x2="1819" y2="852"/>
</g>
<g>
	<line class="st0" x1="120" y1="995" x2="1821" y2="1000"/>
</g>
</svg>
