<?xml version="1.0" encoding="utf-8"?>
<!-- Generator: Adobe Illustrator 21.0.0, SVG Export Plug-In . SVG Version: 6.00 Build 0)  -->
<svg version="1.1" id="Layer_1" xmlns="http://www.w3.org/2000/svg" xmlns:xlink="http://www.w3.org/1999/xlink" x="0px" y="0px"
	 viewBox="0 0 1920 1080" style="enable-background:new 0 0 1920 1080;" xml:space="preserve">
<style type="text/css">
	.st0{fill:none;stroke:#878787;stroke-width:4;stroke-miterlimit:10;}
</style>
<g>
	<line class="st0" x1="96.5" y1="88.5" x2="99.4" y2="982.1"/>
</g>
<g>
	<line class="st0" x1="187" y1="89" x2="189.9" y2="982.5"/>
</g>
<g>
	<line class="st0" x1="277.5" y1="89.5" x2="280.4" y2="983"/>
</g>
<g>
	<line class="st0" x1="368" y1="89.9" x2="370.9" y2="983.5"/>
</g>
<g>
	<line class="st0" x1="458.5" y1="90.4" x2="461.4" y2="984"/>
</g>
<g>
	<line class="st0" x1="549" y1="90.9" x2="551.9" y2="984.5"/>
</g>
<g>
	<line class="st0" x1="639.5" y1="91.4" x2="642.4" y2="984.9"/>
</g>
<g>
	<line class="st0" x1="730" y1="91.9" x2="732.9" y2="985.4"/>
</g>
<g>
	<line class="st0" x1="820.5" y1="92.3" x2="823.4" y2="985.9"/>
</g>
<g>
	<line class="st0" x1="911" y1="92.8" x2="913.9" y2="986.4"/>
</g>
<g>
	<line class="st0" x1="1001.5" y1="93.3" x2="1004.4" y2="986.9"/>
</g>
<g>
	<line class="st0" x1="1092" y1="93.8" x2="1094.9" y2="987.3"/>
</g>
<g>
	<line class="st0" x1="1182.5" y1="94.3" x2="1185.4" y2="987.8"/>
</g>
<g>
	<line class="st0" x1="1273" y1="94.7" x2="1275.9" y2="988.3"/>
</g>
<g>
	<line class="st0" x1="1363.5" y1="95.2" x2="1366.4" y2="988.8"/>
</g>
<g>
	<line class="st0" x1="1454" y1="95.7" x2="1456.9" y2="989.3"/>
</g>
<g>
	<line class="st0" x1="1544.5" y1="96.2" x2="1547.4" y2="989.7"/>
</g>
<g>
	<line class="st0" x1="1635" y1="96.7" x2="1637.9" y2="990.2"/>
</g>
<g>
	<line class="st0" x1="1725.5" y1="97.1" x2="1728.4" y2="990.7"/>
</g>
<g>
	<line class="st0" x1="1816" y1="97.6" x2="1818.9" y2="991.2"/>
</g>
<g>
	<line class="st0" x1="98" y1="90.5" x2="1816" y2="97"/>
</g>
<g>
	<line class="st0" x1="98" y1="179.5" x2="1816" y2="186"/>
</g>
<g>
	<line class="st0" x1="98" y1="268.5" x2="1816" y2="275"/>
</g>
<g>
	<line class="st0" x1="98" y1="357.5" x2="1816" y2="364"/>
</g>
<g>
	<line class="st0" x1="98" y1="446.5" x2="1816" y2="453"/>
</g>
<g>
	<line class="st0" x1="98" y1="535.5" x2="1816" y2="542"/>
</g>
<g>
	<line class="st0" x1="98" y1="624.5" x2="1816" y2="631"/>
</g>
<g>
	<line class="st0" x1="98" y1="713.5" x2="1816" y2="720"/>
</g>
<g>
	<line class="st0" x1="98" y1="802.5" x2="1816" y2="809"/>
</g>
<g>
	<line class="st0" x1="98" y1="891.5" x2="1816" y2="898"/>
</g>
<g>
	<line class="st0" x1="98" y1="983.5" x2="1816" y2="990"/>
</g>
</svg>
