<?xml version="1.0" encoding="utf-8"?>
<!-- Generator: Adobe Illustrator 21.0.0, SVG Export Plug-In . SVG Version: 6.00 Build 0)  -->
<svg version="1.1" id="Layer_1" xmlns="http://www.w3.org/2000/svg" xmlns:xlink="http://www.w3.org/1999/xlink" x="0px" y="0px"
	 viewBox="0 0 1920 2096" style="enable-background:new 0 0 1920 2096;" xml:space="preserve">
<style type="text/css">
	.st0{fill:none;stroke:#878787;stroke-width:4;stroke-miterlimit:10;}
</style>
<g>
	<line class="st0" x1="97.5" y1="149.5" x2="100.4" y2="1043.1"/>
</g>
<g>
	<line class="st0" x1="188" y1="150" x2="190.9" y2="1043.5"/>
</g>
<g>
	<line class="st0" x1="278.5" y1="150.5" x2="281.4" y2="1044"/>
</g>
<g>
	<line class="st0" x1="369" y1="150.9" x2="371.9" y2="1044.5"/>
</g>
<g>
	<line class="st0" x1="459.5" y1="151.4" x2="462.4" y2="1045"/>
</g>
<g>
	<line class="st0" x1="550" y1="151.9" x2="552.9" y2="1045.5"/>
</g>
<g>
	<line class="st0" x1="640.5" y1="152.4" x2="643.4" y2="1045.9"/>
</g>
<g>
	<line class="st0" x1="731" y1="152.9" x2="733.9" y2="1046.4"/>
</g>
<g>
	<line class="st0" x1="821.5" y1="153.3" x2="824.4" y2="1046.9"/>
</g>
<g>
	<line class="st0" x1="912" y1="153.8" x2="914.9" y2="1047.4"/>
</g>
<g>
	<line class="st0" x1="1002.5" y1="154.3" x2="1005.4" y2="1047.9"/>
</g>
<g>
	<line class="st0" x1="1093" y1="154.8" x2="1095.9" y2="1048.3"/>
</g>
<g>
	<line class="st0" x1="1183.5" y1="155.3" x2="1186.4" y2="1048.8"/>
</g>
<g>
	<line class="st0" x1="1274" y1="155.7" x2="1276.9" y2="1049.3"/>
</g>
<g>
	<line class="st0" x1="1364.5" y1="156.2" x2="1367.4" y2="1049.8"/>
</g>
<g>
	<line class="st0" x1="1455" y1="156.7" x2="1457.9" y2="1050.3"/>
</g>
<g>
	<line class="st0" x1="1545.5" y1="157.2" x2="1548.4" y2="1050.7"/>
</g>
<g>
	<line class="st0" x1="1636" y1="157.7" x2="1638.9" y2="1051.2"/>
</g>
<g>
	<line class="st0" x1="1726.5" y1="158.1" x2="1729.4" y2="1051.7"/>
</g>
<g>
	<line class="st0" x1="1817" y1="158.6" x2="1819.9" y2="1052.2"/>
</g>
<g>
	<line class="st0" x1="99" y1="151.5" x2="1817" y2="158"/>
</g>
<g>
	<line class="st0" x1="99" y1="240.5" x2="1817" y2="247"/>
</g>
<g>
	<line class="st0" x1="99" y1="329.5" x2="1817" y2="336"/>
</g>
<g>
	<line class="st0" x1="99" y1="418.5" x2="1817" y2="425"/>
</g>
<g>
	<line class="st0" x1="99" y1="507.5" x2="1817" y2="514"/>
</g>
<g>
	<line class="st0" x1="99" y1="596.5" x2="1817" y2="603"/>
</g>
<g>
	<line class="st0" x1="99" y1="685.5" x2="1817" y2="692"/>
</g>
<g>
	<line class="st0" x1="99" y1="774.5" x2="1817" y2="781"/>
</g>
<g>
	<line class="st0" x1="99" y1="863.5" x2="1817" y2="870"/>
</g>
<g>
	<line class="st0" x1="99" y1="952.5" x2="1817" y2="959"/>
</g>
<g>
	<line class="st0" x1="99" y1="1044.5" x2="1820" y2="1050"/>
</g>
<g>
	<line class="st0" x1="100.5" y1="1043.5" x2="103.4" y2="1937.1"/>
</g>
<g>
	<line class="st0" x1="191" y1="1044" x2="193.9" y2="1937.5"/>
</g>
<g>
	<line class="st0" x1="281.5" y1="1044.5" x2="284.4" y2="1938"/>
</g>
<g>
	<line class="st0" x1="372" y1="1044.9" x2="374.9" y2="1938.5"/>
</g>
<g>
	<line class="st0" x1="462.5" y1="1045.4" x2="465.4" y2="1939"/>
</g>
<g>
	<line class="st0" x1="553" y1="1045.9" x2="555.9" y2="1939.5"/>
</g>
<g>
	<line class="st0" x1="643.5" y1="1046.4" x2="646.4" y2="1939.9"/>
</g>
<g>
	<line class="st0" x1="734" y1="1046.9" x2="736.9" y2="1940.4"/>
</g>
<g>
	<line class="st0" x1="824.5" y1="1047.3" x2="827.4" y2="1940.9"/>
</g>
<g>
	<line class="st0" x1="915" y1="1047.8" x2="917.9" y2="1941.4"/>
</g>
<g>
	<line class="st0" x1="1005.5" y1="1048.3" x2="1008.4" y2="1941.9"/>
</g>
<g>
	<line class="st0" x1="1096" y1="1048.8" x2="1098.9" y2="1942.3"/>
</g>
<g>
	<line class="st0" x1="1186.5" y1="1049.3" x2="1189.4" y2="1942.8"/>
</g>
<g>
	<line class="st0" x1="1277" y1="1049.7" x2="1279.9" y2="1943.3"/>
</g>
<g>
	<line class="st0" x1="1367.5" y1="1050.2" x2="1370.4" y2="1943.8"/>
</g>
<g>
	<line class="st0" x1="1458" y1="1050.7" x2="1460.9" y2="1944.3"/>
</g>
<g>
	<line class="st0" x1="1548.5" y1="1051.2" x2="1551.4" y2="1944.7"/>
</g>
<g>
	<line class="st0" x1="1639" y1="1051.7" x2="1641.9" y2="1945.2"/>
</g>
<g>
	<line class="st0" x1="1729.5" y1="1052.1" x2="1732.4" y2="1945.7"/>
</g>
<g>
	<line class="st0" x1="1820" y1="1049" x2="1822.9" y2="1946.2"/>
</g>
<g>
	<line class="st0" x1="102" y1="1134.5" x2="1820" y2="1141"/>
</g>
<g>
	<line class="st0" x1="102" y1="1223.5" x2="1820" y2="1230"/>
</g>
<g>
	<line class="st0" x1="102" y1="1312.5" x2="1820" y2="1319"/>
</g>
<g>
	<line class="st0" x1="102" y1="1401.5" x2="1820" y2="1408"/>
</g>
<g>
	<line class="st0" x1="102" y1="1490.5" x2="1820" y2="1497"/>
</g>
<g>
	<line class="st0" x1="102" y1="1579.5" x2="1820" y2="1586"/>
</g>
<g>
	<line class="st0" x1="102" y1="1668.5" x2="1820" y2="1675"/>
</g>
<g>
	<line class="st0" x1="102" y1="1757.5" x2="1820" y2="1764"/>
</g>
<g>
	<line class="st0" x1="102" y1="1846.5" x2="1823" y2="1853"/>
</g>
<g>
	<line class="st0" x1="102" y1="1938.5" x2="1823" y2="1944"/>
</g>
</svg>
